<svg width="198" height="39" viewBox="0 0 198 39" fill="none" xmlns="http://www.w3.org/2000/svg">
<path d="M0.403409 38V1.63636H4.80682V34.0938H21.7102V38H0.403409ZM35.9858 38.6392C34.2576 38.6392 32.6892 38.3137 31.2805 37.6626C29.8719 36.9998 28.7533 36.0469 27.9247 34.804C27.0961 33.5492 26.6818 32.0341 26.6818 30.2585C26.6818 28.696 26.9896 27.4295 27.6051 26.4588C28.2206 25.4763 29.0433 24.7069 30.0732 24.1506C31.103 23.5942 32.2393 23.1799 33.4822 22.9077C34.737 22.6236 35.9976 22.3987 37.2642 22.233C38.9214 22.0199 40.2649 21.8601 41.2947 21.7536C42.3364 21.6352 43.094 21.4399 43.5675 21.1676C44.0528 20.8954 44.2955 20.4219 44.2955 19.7472V19.6051C44.2955 17.8532 43.8161 16.492 42.8572 15.5213C41.9103 14.5507 40.4721 14.0653 38.5426 14.0653C36.5421 14.0653 34.9737 14.5033 33.8374 15.3793C32.701 16.2552 31.902 17.1903 31.4403 18.1847L27.4631 16.7642C28.1733 15.107 29.1203 13.8168 30.304 12.8935C31.4995 11.9583 32.8016 11.3073 34.2102 10.9403C35.6307 10.5616 37.0275 10.3722 38.4006 10.3722C39.2765 10.3722 40.2827 10.4787 41.419 10.6918C42.5672 10.893 43.674 11.3132 44.7393 11.9524C45.8165 12.5916 46.7102 13.5563 47.4205 14.8466C48.1307 16.1368 48.4858 17.8651 48.4858 20.0312V38H44.2955V34.3068H44.0824C43.7983 34.8987 43.3248 35.532 42.6619 36.2067C41.9991 36.8814 41.1172 37.4555 40.0163 37.929C38.9155 38.4025 37.572 38.6392 35.9858 38.6392ZM36.625 34.875C38.2822 34.875 39.679 34.5495 40.8153 33.8984C41.9635 33.2474 42.8277 32.407 43.4077 31.3771C43.9995 30.3473 44.2955 29.2642 44.2955 28.1278V24.2926C44.1179 24.5057 43.7273 24.701 43.1236 24.8786C42.5317 25.0443 41.8452 25.1922 41.0639 25.3224C40.2945 25.4408 39.5429 25.5473 38.8089 25.642C38.0869 25.7249 37.5009 25.7959 37.0511 25.8551C35.9621 25.9972 34.9441 26.228 33.9972 26.5476C33.062 26.8554 32.3045 27.3229 31.7244 27.9503C31.1563 28.5658 30.8722 29.4062 30.8722 30.4716C30.8722 31.9276 31.4107 33.0284 32.4879 33.7741C33.5769 34.508 34.956 34.875 36.625 34.875ZM60.3244 21.5938V38H56.1341V10.7273H60.1824V14.9886H60.5375C61.1767 13.6037 62.1473 12.491 63.4494 11.6506C64.7515 10.7983 66.4324 10.3722 68.492 10.3722C70.3386 10.3722 71.9544 10.7509 73.3393 11.5085C74.7243 12.2543 75.8014 13.3906 76.5708 14.9176C77.3403 16.4328 77.725 18.3504 77.725 20.6705V38H73.5346V20.9545C73.5346 18.812 72.9783 17.143 71.8656 15.9474C70.7529 14.7401 69.2259 14.1364 67.2846 14.1364C65.947 14.1364 64.7515 14.4264 63.698 15.0064C62.6563 15.5864 61.8336 16.4328 61.2299 17.5455C60.6262 18.6581 60.3244 20.0076 60.3244 21.5938ZM95.6804 38.5682C93.4077 38.5682 91.4013 37.9941 89.6612 36.8459C87.9212 35.6858 86.5599 34.0523 85.5774 31.9453C84.5949 29.8265 84.1037 27.3229 84.1037 24.4347C84.1037 21.5701 84.5949 19.0843 85.5774 16.9773C86.5599 14.8703 87.9271 13.2427 89.679 12.0945C91.4309 10.9463 93.455 10.3722 95.7514 10.3722C97.527 10.3722 98.9297 10.6681 99.9595 11.2599C101.001 11.84 101.794 12.5028 102.339 13.2486C102.895 13.9825 103.327 14.5862 103.635 15.0597H103.99V1.63636H108.18V38H104.132V33.8097H103.635C103.327 34.3068 102.889 34.9342 102.321 35.6918C101.753 36.4375 100.942 37.1063 99.8885 37.6982C98.835 38.2782 97.4323 38.5682 95.6804 38.5682ZM96.2486 34.804C97.9295 34.804 99.3499 34.366 100.51 33.4901C101.67 32.6023 102.552 31.3771 103.156 29.8146C103.759 28.2403 104.061 26.4233 104.061 24.3636C104.061 22.3277 103.765 20.5462 103.173 19.0192C102.581 17.4804 101.705 16.2848 100.545 15.4325C99.3854 14.5684 97.9531 14.1364 96.2486 14.1364C94.473 14.1364 92.9934 14.5921 91.8097 15.5036C90.6378 16.4032 89.7559 17.6283 89.1641 19.179C88.584 20.7178 88.294 22.446 88.294 24.3636C88.294 26.3049 88.59 28.0687 89.1818 29.6548C89.7855 31.2292 90.6733 32.4839 91.8452 33.419C93.0289 34.3423 94.4967 34.804 96.2486 34.804ZM123.61 38L113.667 1.63636H118.141L125.741 31.2528H126.096L133.837 1.63636H138.809L146.55 31.2528H146.906L154.505 1.63636H158.979L149.036 38H144.491L136.465 9.02273H136.181L128.156 38H123.61ZM163.898 38V10.7273H168.088V38H163.898ZM166.028 6.18182C165.212 6.18182 164.507 5.90365 163.915 5.3473C163.335 4.79096 163.045 4.12216 163.045 3.34091C163.045 2.55966 163.335 1.89086 163.915 1.33452C164.507 0.778172 165.212 0.5 166.028 0.5C166.845 0.5 167.544 0.778172 168.124 1.33452C168.715 1.89086 169.011 2.55966 169.011 3.34091C169.011 4.12216 168.715 4.79096 168.124 5.3473C167.544 5.90365 166.845 6.18182 166.028 6.18182ZM179.953 21.5938V38H175.763V10.7273H179.811V14.9886H180.166C180.806 13.6037 181.776 12.491 183.078 11.6506C184.38 10.7983 186.061 10.3722 188.121 10.3722C189.968 10.3722 191.583 10.7509 192.968 11.5085C194.353 12.2543 195.43 13.3906 196.2 14.9176C196.969 16.4328 197.354 18.3504 197.354 20.6705V38H193.164V20.9545C193.164 18.812 192.607 17.143 191.494 15.9474C190.382 14.7401 188.855 14.1364 186.914 14.1364C185.576 14.1364 184.38 14.4264 183.327 15.0064C182.285 15.5864 181.463 16.4328 180.859 17.5455C180.255 18.6581 179.953 20.0076 179.953 21.5938Z" fill="#52B788"/>
</svg>
